<?xml version="1.0" encoding="UTF-8" standalone="no"?>
<!-- Created with Inkscape (http://www.inkscape.org/) -->

<svg
   xmlns:dc="http://purl.org/dc/elements/1.1/"
   xmlns:cc="http://creativecommons.org/ns#"
   xmlns:rdf="http://www.w3.org/1999/02/22-rdf-syntax-ns#"
   xmlns:svg="http://www.w3.org/2000/svg"
   xmlns="http://www.w3.org/2000/svg"
   xmlns:sodipodi="http://sodipodi.sourceforge.net/DTD/sodipodi-0.dtd"
   xmlns:inkscape="http://www.inkscape.org/namespaces/inkscape"
   width="236.36111mm"
   height="236.36111mm"
   viewBox="0 0 837.50001 837.50001"
   id="svg2"
   version="1.1"
   inkscape:version="0.91 r13725"
   sodipodi:docname="logo_wt.svg">
  <defs
     id="defs4" />
  <sodipodi:namedview
     id="base"
     pagecolor="#ffffff"
     bordercolor="#666666"
     borderopacity="1.0"
     inkscape:pageopacity="0.0"
     inkscape:pageshadow="2"
     inkscape:zoom="0.49497475"
     inkscape:cx="-204.7744"
     inkscape:cy="430.35565"
     inkscape:document-units="px"
     inkscape:current-layer="layer1"
     showgrid="false"
     inkscape:window-width="1366"
     inkscape:window-height="705"
     inkscape:window-x="-8"
     inkscape:window-y="-8"
     inkscape:window-maximized="1"
     fit-margin-top="0"
     fit-margin-left="0"
     fit-margin-right="0"
     fit-margin-bottom="0" />
  <metadata
     id="metadata7">
    <rdf:RDF>
      <cc:Work
         rdf:about="">
        <dc:format>image/svg+xml</dc:format>
        <dc:type
           rdf:resource="http://purl.org/dc/dcmitype/StillImage" />
        <dc:title></dc:title>
      </cc:Work>
    </rdf:RDF>
  </metadata>
  <g
     inkscape:label="Layer 1"
     inkscape:groupmode="layer"
     id="layer1"
     transform="translate(46.899144,-67.610771)">
    <path
       style="fill:#000000"
       d="m -46.899144,486.36077 0,-418.749999 418.749994,0 418.75,0 0,418.749999 0,418.75 -418.75,0 -418.749994,0 z m 824.999994,0 0,-406.249999 -406.25,0 -406.249994,0 0,363.124999 c 0,199.71875 0.19898,363.125 0.44218,363.125 0.2432,0 9.38383,-3.42173 20.3125,-7.60385 28.73971,-10.99793 78.841977,-27.57706 104.962887,-34.73286 47.197277,-12.92963 73.522797,-17.6017 104.598497,-18.56344 19.2482,-0.5957 22.95343,-0.39562 27.93978,1.50869 4.3159,1.64825 6.17089,3.2058 7.44245,6.24909 3.8899,9.30985 -1.29813,16.25982 -31.27391,41.89496 -21.4418,18.33694 -29.25342,26.12372 -32.49445,32.39117 -2.4055,4.65172 -1.7804,6.024 3.80751,8.35878 13.96553,5.83517 45.37462,-2.4952 90.07805,-23.89065 14.76142,-7.06494 40.42847,-20.57959 42.64009,-22.45158 0.18183,-0.15391 -0.75066,-3.88106 -2.07221,-8.28257 -1.32154,-4.4015 -5.05303,-17.56524 -8.29218,-29.25274 -3.23916,-11.6875 -7.22853,-25.95355 -8.86528,-31.70234 -1.63675,-5.74877 -2.97592,-11.1573 -2.97592,-12.01892 0,-0.86163 -1.03922,-2.90808 -2.30938,-4.54766 -1.27017,-1.63959 -2.6487,-4.38733 -3.06343,-6.10608 -0.46359,-1.92121 2.29176,-15.26825 7.15275,-34.6484 l 7.9068,-31.5234 -5.15586,3.0042 c -2.83574,1.6523 -9.63619,4.50173 -15.11213,6.33204 -9.0417,3.02215 -25.50508,3.37498 -25.50508,3.37498 -8.16073,-0.57967 -14.55376,-1.1895 -23.64547,-5.80433 -12.31358,-6.2502 -18.73327,-13.8036 -24.96725,-27.02213 l -4.50342,-9.54905 -5.85481,7.03528 c -10.58727,12.72189 -21.01843,21.10204 -34.80657,27.96277 -11.20012,5.12723 -20.19859,6.69209 -32.00761,7.72573 -9.7994,0.0204 -17.01765,-1.60267 -26.018077,-4.92104 -12.86817,-4.74437 -22.45972,-15.70905 -28.6833,-28.33346 -6.85267,-13.90052 -8.427157,-21.60413 -8.427157,-41.23208 0,-27.79332 3.742347,-44.74117 22.473787,-101.77611 17.59416,-53.57205 22.530577,-73.12356 22.521527,-89.2001 -0.007,-13.12373 -5.386617,-19.41636 -14.617507,-17.09955 -5.40895,1.35755 -19.47523,16.65966 -24.27521,26.40799 -3.66787,7.4491 -4.2276,9.83078 -4.2276,17.98876 0,10.28149 0.63466,11.72635 12.53881,28.54555 5.04946,7.13431 5.58619,8.58205 5.58619,15.06777 0,5.89209 -0.70002,8.27894 -3.91472,13.348 -11.22041,17.69275 -20.349297,24.2858 -33.653057,24.30485 -6.86549,0.01 -9.09308,-0.56178 -13.75,-3.52833 -7.5567,-4.81378 -14.55613,-12.87055 -18.5132599,-21.30993 -3.16551,-6.75106 -4.80919,-11.16104 -4.80919,-32.183 0,-4.01853 0.44634,-7.5697 0.64758,-10.33331 0.36985,-5.07896 3.7995,-17.6337 3.7995,-17.6337 14.5179199,-38.76807 41.3284999,-71.43996 74.3201669,-81.90626 13.83095,-4.38774 35.746177,-4.45967 47.602007,-0.15623 17.74739,6.44195 31.8495,19.51013 41.19125,38.17118 8.26555,16.51124 9.99675,25.94107 9.27855,50.54012 -0.84636,28.98824 -4.06643,42.44429 -25.77913,107.72619 -18.48015,55.56286 -20.53925,71.93488 -8.67262,68.95655 4.73792,-1.18915 15.92141,-13.20178 22.64507,-24.32398 13.44708,-22.244 21.57465,-45.6769 40.84357,-117.75757 14.62791,-54.71979 25.39836,-88.91911 33.58177,-106.63209 4.20219,-9.09562 5.66495,-11.06322 9.78865,-13.16697 7.1981,-3.6722 17.57325,-5.3003 38.85276,-6.09692 16.78062,-0.62818 19.69519,-0.43876 24.14867,1.56948 5.79717,2.61416 8.64243,7.16369 8.64243,13.8191 0,2.53922 -8.11737,35.05153 -18.03862,72.24957 -21.43853,80.38018 -24.93656,94.13043 -28.97164,113.88283 -6.95694,34.05551 -8.54526,54.75764 -4.76242,62.07286 1.71278,3.31216 2.47321,3.72454 5.68402,3.08238 5.02114,-1.00424 13.60945,-7.08903 23.92774,-16.95274 l 8.58052,-8.2025 18.79393,-75 c 21.5533,-86.01166 20.58976,-75.36958 9.16211,-101.19349 -5.9855,-13.52589 -6.87564,-16.56694 -6.87564,-23.48973 0,-6.64403 0.60178,-8.90123 3.65784,-13.72013 4.37279,-6.89518 13.03003,-13.96819 25.56833,-20.88949 l 9.21636,-5.08755 22.8838,-91.54997 c 17.69721,-70.80026 23.48899,-92.20264 25.55391,-94.42958 1.85956,-2.00544 4.16134,-2.91444 7.58244,-2.99439 2.70177,-0.0631 22.06857,4.21109 43.03732,9.4983 42.28967,10.66322 43.77395,11.34471 43.97735,20.19162 0.0621,2.70293 -8.4011,38.7979 -18.80718,80.21106 -10.40609,41.41315 -18.92017,75.58502 -18.92017,75.9375 0,0.35246 54.59044,0.64085 121.31208,0.64085 131.7754,0 126.45005,-0.28086 129.69456,6.84007 1.03263,2.26635 1.49336,13.07554 1.49336,35.03493 0,21.95939 -0.46073,32.76857 -1.49336,35.03492 -3.0038,6.59264 -4.82405,6.84008 -50.31956,6.84008 l -41.93708,0 0,116.19119 c 0,87.42145 -0.36976,117.00272 -1.49336,119.46874 -2.99836,6.5807 -4.88052,6.84007 -49.63575,6.84007 -29.32161,0 -42.20122,-0.43193 -44.53081,-1.49336 -7.10754,-3.2384 -6.84008,1.63739 -6.84008,-124.69456 l 0,-116.31208 -38.61626,0 c -29.7483,0 -38.75034,0.35881 -39.2001,1.5625 -0.32111,0.85937 -18.17527,72.37911 -39.67591,158.93276 -39.86575,160.48483 -40.64971,163.25474 -46.20534,163.25474 -2.08679,0 -2.55871,0.46952 -10.67956,10.625 -2.7488,3.4375 -5.30921,6.53125 -5.68981,6.875 -0.60743,0.54863 -4.96587,5.90977 -19.30802,23.75 -12.60896,15.68432 -18.83373,23.30529 -20.10701,24.61694 -0.79656,0.82056 -1.18196,2.88511 -0.85646,4.58788 0.81002,4.23733 -4.50184,7.90965 -30.61119,21.16287 -34.22016,17.3703 -63.48656,28.62981 -83.60905,32.1665 -23.58781,4.14573 -42.0322,-3.38052 -42.0322,-17.15128 0,-10.69073 8.50724,-21.03377 37.84438,-46.01085 19.42448,-16.53766 27.49653,-24.48397 27.49653,-27.06827 0,-2.6487 -43.51601,-0.48749 -64.11631,3.18432 -45.63405,8.13384 -110.414614,27.576 -174.633684,52.41167 l -14.375,5.55929 -0.33138,36.39547 -0.33138,36.39546 406.268884,0 406.26887,0 z M 333.01862,744.08959 c 9.11986,-11.21788 16.38483,-20.55482 16.1444,-20.74872 -0.93279,-0.75225 -52.66248,-13.29645 -53.08587,-12.87306 -0.3999,0.3999 6.67072,26.69237 13.4807,50.12871 2.96375,10.19968 0.12552,12.19665 23.46077,-16.50693 z m 68.82476,-188.22373 c 37.94577,-152.67933 38.905,-156.84395 36.98185,-160.56293 -1.64775,-3.18637 -1.97438,-9.09179 -1.97438,-35.69627 0,-22.05312 0.46027,-32.88843 1.49337,-35.15582 2.10086,-4.61091 7.19793,-6.84007 15.64012,-6.84007 l 7.25765,0 19.49669,-78.02716 19.49669,-78.02718 -36.62604,-9.12238 c -20.14433,-5.01731 -36.90373,-8.8447 -37.24311,-8.50531 -0.68014,0.68014 -43.26537,170.38768 -43.26537,172.418 0,0.69522 1.71544,1.26403 3.81208,1.26403 8.20141,0 13.71987,4.96906 20.41837,18.38564 5.73205,11.48085 10.11332,22.32192 11.54152,34.26467 0.7784,6.50908 1.355,9.15526 1.10303,20.20683 -0.15095,6.62073 0.0359,11.77228 -0.20709,16.61019 -0.87632,17.4487 -4.48366,27.95767 -9.75196,48.65767 -5.67469,22.29676 -11.44061,37.3737 -24.38015,63.75 -12.19246,24.85343 -20.81632,39.21294 -33.90468,56.45436 -9.3164,12.27258 -27.5714,31.56213 -38.39478,40.57068 l -6.63866,5.52551 -9.12374,36.4294 -9.12372,36.4294 34.51238,8.74191 c 18.98183,4.80805 35.72994,8.79408 37.21805,8.85783 2.56444,0.10987 4.73898,-8.0654 41.66188,-156.629 z m -262.31025,71.83427 c 19.71961,-7.46489 40.54757,-28.12037 56.27841,-55.81239 l 5.41431,-9.53114 0.8332,10.74871 c 1.70483,21.99322 5.90538,34.0153 15.5097,44.38914 8.06025,8.70601 16.35559,12.71828 28.05265,13.56843 44.60373,3.24184 108.0533,-62.19142 140.31528,-144.70211 21.63671,-55.33635 25.55251,-110.54511 10.1482,-143.07951 -3.86969,-8.17289 -8.23993,-13.17049 -11.51718,-13.17049 -7.10091,0 -24.3867,9.34379 -34.20163,18.48761 -8.85379,8.24839 -8.84552,9.88984 0.15598,30.90191 22.66394,52.90417 21.55222,99.10847 -3.57672,148.6524 -9.49444,18.71912 -19.51805,32.73563 -33.16793,46.38038 -23.49406,23.48524 -39.49443,29.56006 -50.29228,19.09438 -14.81723,-14.36143 -10.31915,-45.90738 25.88091,-181.50858 19.39122,-72.63729 20.89239,-79.01639 18.95921,-80.56649 -3.58297,-2.87301 -41.01455,0.15425 -48.95299,3.95905 -6.55905,3.14367 -18.67198,38.61173 -38.07033,111.47434 -7.32139,27.5 -16.42699,59.2809 -20.23468,70.62422 -18.18772,54.18229 -40.77631,84.48169 -61.26085,82.17279 -7.39655,-0.8337 -11.4714,-3.8249 -14.4819,-10.63066 -4.73527,-10.70485 -1.52746,-25.99325 17.76465,-84.66635 14.45319,-43.95651 17.82763,-56.0415 21.23834,-76.06171 4.51961,-26.52927 2.69301,-44.8289 -6.2946,-63.06163 -11.89481,-24.13045 -32.27044,-36.62675 -56.80703,-34.83956 -19.972637,1.45476 -36.767937,10.43585 -53.987294,28.86906 -21.77084,23.30553 -33.13741,52.42778 -31.26107,80.09384 0.93638,13.80665 3.67906,20.81165 11.02438,28.15697 9.59049,9.59048 16.48196,9.52653 25.62998,-0.23782 5.869157,-6.2646 11.719007,-14.89798 11.719007,-17.29529 0,-1.16931 -2.86239,-5.90715 -6.36085,-10.52852 -15.448377,-20.40684 -17.358677,-37.28978 -6.620817,-58.51365 14.225697,-28.11774 38.991037,-41.1217 53.707034,-28.20089 16.42026,14.41719 14.04145,37.62492 -11.953597,116.6192 -6.78717,20.625 -13.77687,42.84375 -15.53266,49.375 -4.54116,16.89228 -8.24275,39.89345 -8.21741,51.06171 0.0689,30.37619 14.38982,53.28408 37.389987,59.80955 8.005,2.27114 24.0279,1.27767 32.77059,-2.0319 z m 481.06772,-117.58936 0,-121.25 46.875,0 46.875,0 0,-29.375 0,-29.375 -132.5,0 -132.5,0 0,29.375 0,29.375 46.875,0 46.875,0 0,121.25 0,121.25 38.75,0 38.75,0 z m -282.54941,5.88409 c 10.02851,-21.70668 15.1261,-43.92893 14.93573,-65.11033 l -0.11369,-12.64876 -10.91385,43.125 c -6.00263,23.71875 -11.32659,44.8125 -11.83103,46.875 -0.91661,3.74777 -0.91595,3.74831 1.12745,0.89605 1.12455,-1.56966 4.18247,-7.4813 6.79539,-13.13696 z"
       id="path4147"
       inkscape:connector-curvature="0"
       sodipodi:nodetypes="cccccccccccccssssssssssssssssssscssssscscccssscsssssscssssssssssssssssssssssscssssscsscscssssssscssssscssssssssssssssssccccccsssssssssscccscsssssssssscccssssscssssssssssssssssssssssssssssssssssscccccccccccccccccsscssss" />
  </g>
</svg>
